<svg width="534" height="648" viewBox="0 0 534 648" fill="none" xmlns="http://www.w3.org/2000/svg">
<path opacity="0.3" d="M227.877 255.802L23.6116 373.626V479.935L209.825 372.529L227.808 378.424L227.877 255.802Z" fill="url(#paint0_linear_39_688)"/>
<path d="M186.351 315.296C186.351 324.07 191.568 328.182 197.951 324.481C204.334 320.78 209.551 310.704 209.551 301.931C209.551 293.157 204.334 289.045 197.951 292.746C191.568 296.447 186.351 306.591 186.351 315.296Z" fill="#553C9A"/>
<path opacity="0.15" d="M175.369 311.938L130.617 337.778V347.1L175.369 321.259V311.938Z" fill="white"/>
<path opacity="0.15" d="M175.369 330.65L41.6631 407.76V417.081L175.369 339.971V330.65Z" fill="white"/>
<path opacity="0.15" d="M175.369 349.293L70.834 409.61V418.932L175.369 358.615V349.293Z" fill="white"/>
<path opacity="0.3" d="M376.271 113.988L261.235 180.268V393.091L376.271 326.811V113.988Z" fill="url(#paint1_linear_39_688)"/>
<path opacity="0.15" d="M364.946 240.311L272.56 293.568V302.89L364.946 249.633V240.311Z" fill="white"/>
<path opacity="0.15" d="M358.494 262.176L279.081 307.962V317.284L358.494 271.498V262.176Z" fill="white"/>
<path d="M324.93 300.285L404.962 254.157V277.941L324.93 324.07V300.285Z" fill="#B794F4"/>
<path d="M305.643 197.609C305.643 207.891 311.614 212.757 318.959 208.508C326.303 204.189 332.274 192.4 332.274 182.05C332.274 171.769 326.303 166.902 318.959 171.152C311.614 175.539 305.643 187.328 305.643 197.609Z" fill="#B794F4"/>
<path d="M318.958 216.801C330.833 209.878 340.648 216.39 342.364 231.264C342.638 233.868 340.717 237.295 338.314 238.666L299.603 261.285C297.2 262.656 295.278 261.559 295.553 258.612C297.269 241.682 307.084 223.724 318.958 216.801Z" fill="#B794F4"/>
<path opacity="0.3" d="M296.445 368.896L181.409 435.177V648L296.445 581.72V368.896Z" fill="url(#paint2_linear_39_688)"/>
<path opacity="0.15" d="M285.189 495.219L192.803 548.477V557.798L285.189 504.541V495.219Z" fill="white"/>
<path opacity="0.15" d="M278.737 517.085L199.324 562.871V572.192L278.737 526.406V517.085Z" fill="white"/>
<path d="M152.924 608.314L232.956 562.185V585.969L152.924 632.098V608.314Z" fill="#553C9A"/>
<path d="M225.887 452.518C225.887 462.799 231.858 467.665 239.202 463.416C246.547 459.098 252.518 447.308 252.518 436.958C252.518 426.677 246.547 421.811 239.202 426.06C231.858 430.378 225.887 442.236 225.887 452.518Z" fill="#553C9A"/>
<path d="M239.202 471.71C251.076 464.787 260.892 471.298 262.607 486.172C262.882 488.777 260.96 492.204 258.558 493.575L219.846 516.194C217.444 517.564 215.522 516.468 215.797 513.52C217.513 496.591 227.328 478.632 239.202 471.71Z" fill="#553C9A"/>
<path opacity="0.3" d="M329.735 350.321L534 232.497V338.806L347.718 446.212L329.666 472.875L329.735 350.321Z" fill="url(#paint3_linear_39_688)"/>
<path d="M371.261 361.974C371.261 370.747 366.045 380.823 359.661 384.524C353.278 388.225 348.062 384.113 348.062 375.339C348.062 366.566 353.278 356.49 359.661 352.789C366.045 349.088 371.261 353.2 371.261 361.974Z" fill="#B794F4"/>
<path opacity="0.15" d="M382.243 345.866L426.994 320.026V329.347L382.243 355.188V345.866Z" fill="white"/>
<path opacity="0.15" d="M382.243 364.578L515.88 287.468V296.79L382.243 373.9V364.578Z" fill="white"/>
<path opacity="0.15" d="M382.243 383.29L486.778 322.973V332.295L382.243 392.612V383.29Z" fill="white"/>
<path opacity="0.4" d="M27.4551 87.9419C143.315 21.1133 238.035 100.28 238.035 266.426L267.618 249.359C267.549 61.6903 160.406 -29.6079 27.4551 47.0222V87.9419Z" fill="url(#paint4_linear_39_688)"/>
<path opacity="0.4" d="M124.097 332.226C124.097 258.475 80.8555 223.587 27.5242 254.294V213.374C97.1913 173.208 153.611 218.789 153.68 315.159L124.097 332.226Z" fill="url(#paint5_linear_39_688)"/>
<path opacity="0.4" d="M181.752 298.229C181.752 180.474 112.703 124.818 27.6609 173.894V132.974C129.107 74.5078 211.335 140.857 211.335 281.162L181.752 298.229Z" fill="url(#paint6_linear_39_688)"/>
<path opacity="0.4" d="M55.5969 371.638C40.0848 380.617 27.5242 370.404 27.5242 348.95C27.5242 327.497 40.0848 302.822 55.5969 293.843C71.109 284.864 83.6697 295.076 83.6697 316.53C83.6697 338.052 71.109 362.659 55.5969 371.638Z" fill="url(#paint7_linear_39_688)"/>
<path opacity="0.07" d="M0 68.0647C115.86 1.23608 210.58 80.4023 210.58 246.548L240.163 229.481C240.094 41.813 132.951 -49.4851 0 27.145V68.0647Z" fill="url(#paint8_linear_39_688)"/>
<path opacity="0.07" d="M96.6421 312.349C96.6421 238.598 53.4005 203.71 0.0690918 234.416V193.497C69.7362 153.331 126.156 198.912 126.225 295.282L96.6421 312.349Z" fill="url(#paint9_linear_39_688)"/>
<path opacity="0.07" d="M154.297 278.352C154.297 160.597 85.2477 104.941 0.205811 154.017V113.097C101.652 54.6306 183.88 120.979 183.88 261.285L154.297 278.352Z" fill="url(#paint10_linear_39_688)"/>
<path opacity="0.07" d="M28.1419 351.761C12.6298 360.74 0.0690918 350.527 0.0690918 329.073C0.0690918 307.62 12.6298 282.944 28.1419 273.965C43.6539 264.986 56.2146 275.199 56.2146 296.653C56.2146 318.175 43.6539 342.782 28.1419 351.761Z" fill="url(#paint11_linear_39_688)"/>
<path opacity="0.2" d="M118.057 458.206C113.938 460.537 110.644 466.294 110.644 471.024V491.929L96.7791 499.88C92.6608 502.21 89.3662 507.968 89.3662 512.697C89.3662 517.427 92.6608 519.346 96.7791 517.016L110.644 509.065V529.97C110.644 534.699 113.938 536.619 118.057 534.288C122.175 531.958 125.47 526.2 125.47 521.471V500.565L139.334 492.615C143.453 490.284 146.747 484.527 146.747 479.797C146.747 475.068 143.453 473.149 139.334 475.479L125.47 483.43V462.525C125.47 457.795 122.175 455.876 118.057 458.206Z" fill="url(#paint12_linear_39_688)"/>
<path opacity="0.2" d="M445.115 159.637L426.034 197.061C423.426 202.202 423.837 207.342 426.995 208.576C430.152 209.81 434.819 206.588 437.428 201.448L437.633 200.968V242.504C437.633 247.234 440.928 249.153 445.046 246.823C449.165 244.424 452.459 238.735 452.459 234.005V192.469L452.665 192.674C455.273 194.799 460.009 192.606 463.098 187.739C466.255 182.873 466.667 177.252 464.059 175.127L445.115 159.637Z" fill="url(#paint13_linear_39_688)"/>
<defs>
<linearGradient id="paint0_linear_39_688" x1="140.067" y1="259.262" x2="113.868" y2="473.139" gradientUnits="userSpaceOnUse">
<stop stop-color="white"/>
<stop offset="1" stop-color="white" stop-opacity="0"/>
</linearGradient>
<linearGradient id="paint1_linear_39_688" x1="248.914" y1="132.715" x2="350.812" y2="309.499" gradientUnits="userSpaceOnUse">
<stop stop-color="white"/>
<stop offset="1" stop-color="white" stop-opacity="0"/>
</linearGradient>
<linearGradient id="paint2_linear_39_688" x1="169.151" y1="387.608" x2="271.049" y2="564.392" gradientUnits="userSpaceOnUse">
<stop stop-color="white"/>
<stop offset="1" stop-color="white" stop-opacity="0"/>
</linearGradient>
<linearGradient id="paint3_linear_39_688" x1="374.297" y1="307.687" x2="479.654" y2="390.253" gradientUnits="userSpaceOnUse">
<stop stop-color="white"/>
<stop offset="1" stop-color="white" stop-opacity="0"/>
</linearGradient>
<linearGradient id="paint4_linear_39_688" x1="68.2674" y1="15.7014" x2="238.662" y2="214.802" gradientUnits="userSpaceOnUse">
<stop stop-color="white"/>
<stop offset="1" stop-color="white" stop-opacity="0"/>
</linearGradient>
<linearGradient id="paint5_linear_39_688" x1="-36.8595" y1="105.75" x2="133.535" y2="304.851" gradientUnits="userSpaceOnUse">
<stop stop-color="white"/>
<stop offset="1" stop-color="white" stop-opacity="0"/>
</linearGradient>
<linearGradient id="paint6_linear_39_688" x1="14.6127" y1="61.0245" x2="185.008" y2="260.125" gradientUnits="userSpaceOnUse">
<stop stop-color="white"/>
<stop offset="1" stop-color="white" stop-opacity="0"/>
</linearGradient>
<linearGradient id="paint7_linear_39_688" x1="-95.936" y1="156.207" x2="74.4583" y2="355.307" gradientUnits="userSpaceOnUse">
<stop stop-color="white"/>
<stop offset="1" stop-color="white" stop-opacity="0"/>
</linearGradient>
<linearGradient id="paint8_linear_39_688" x1="40.8136" y1="-4.17574" x2="211.208" y2="194.925" gradientUnits="userSpaceOnUse">
<stop stop-color="white"/>
<stop offset="1" stop-color="white" stop-opacity="0"/>
</linearGradient>
<linearGradient id="paint9_linear_39_688" x1="-64.3134" y1="85.8734" x2="106.081" y2="284.974" gradientUnits="userSpaceOnUse">
<stop stop-color="white"/>
<stop offset="1" stop-color="white" stop-opacity="0"/>
</linearGradient>
<linearGradient id="paint10_linear_39_688" x1="-12.8413" y1="41.147" x2="157.553" y2="240.247" gradientUnits="userSpaceOnUse">
<stop stop-color="white"/>
<stop offset="1" stop-color="white" stop-opacity="0"/>
</linearGradient>
<linearGradient id="paint11_linear_39_688" x1="-123.39" y1="136.329" x2="47.0041" y2="335.43" gradientUnits="userSpaceOnUse">
<stop stop-color="white"/>
<stop offset="1" stop-color="white" stop-opacity="0"/>
</linearGradient>
<linearGradient id="paint12_linear_39_688" x1="103.706" y1="484.951" x2="139.604" y2="513.322" gradientUnits="userSpaceOnUse">
<stop stop-color="white"/>
<stop offset="1" stop-color="white" stop-opacity="0"/>
</linearGradient>
<linearGradient id="paint13_linear_39_688" x1="431.515" y1="197.366" x2="466.305" y2="216.786" gradientUnits="userSpaceOnUse">
<stop stop-color="white"/>
<stop offset="1" stop-color="white" stop-opacity="0"/>
</linearGradient>
</defs>
</svg>
