<svg width="450" height="702" viewBox="0 0 450 702" fill="none" xmlns="http://www.w3.org/2000/svg">
<path opacity="0.3" d="M174.075 1.14007C178.718 3.79527 182.403 10.2858 182.403 15.5962V158.092L224.632 182.505V329.5C224.632 334.811 220.873 336.95 216.304 334.294C211.661 331.639 207.976 325.149 207.976 319.838V192.093L165.673 167.754V5.93418C165.673 0.623778 169.432 -1.51514 174.075 1.14007Z" fill="url(#paint0_linear_1_6)"/>
<path opacity="0.3" d="M197.068 620.098C201.711 622.753 205.396 620.614 205.396 615.303V508.505L247.625 532.918V462.998C247.625 457.688 243.867 451.197 239.297 448.542C234.654 445.887 230.969 448.026 230.969 453.336V504.006L188.741 479.593V605.641C188.741 610.952 192.499 617.442 197.068 620.098Z" fill="url(#paint1_linear_1_6)"/>
<path opacity="0.3" d="M261.996 105.726C266.639 108.381 270.324 114.871 270.324 120.182V362.617C270.324 367.927 266.566 370.066 261.996 367.411C257.353 364.755 253.669 358.265 253.669 352.955V110.52C253.669 105.209 257.427 103.07 261.996 105.726Z" fill="url(#paint2_linear_1_6)"/>
<path d="M214.682 607.928C214.682 622.532 206.133 629.465 195.594 623.343C185.056 617.295 176.507 600.479 176.507 585.875C176.507 571.271 185.056 564.338 195.594 570.46C206.133 576.508 214.682 593.324 214.682 607.928Z" fill="#B794F4"/>
<path opacity="0.3" d="M354.929 227.275C350.286 224.62 346.602 226.759 346.602 232.069V304.055L304.373 279.641V368.074C304.373 373.385 308.131 379.875 312.701 382.531C317.343 385.186 321.028 383.047 321.028 377.736V308.554L363.257 332.967V241.731C363.257 236.421 359.499 229.93 354.929 227.275Z" fill="url(#paint3_linear_1_6)"/>
<path d="M373.649 252.721C373.649 267.177 365.174 273.962 354.782 267.988C344.391 261.94 335.916 245.419 335.916 230.963C335.916 216.506 344.317 209.721 354.782 215.695C365.247 221.743 373.649 238.264 373.649 252.721Z" fill="#553C9A"/>
<path opacity="0.3" d="M435.703 620.909C435.703 615.599 431.944 609.108 427.375 606.453L361.783 568.542V513.595L296.634 475.979C291.991 473.324 288.307 475.463 288.307 480.773C288.307 486.084 292.065 492.574 296.634 495.229L345.128 523.257V578.204L427.448 625.703C432.018 628.358 435.703 626.219 435.703 620.909Z" fill="url(#paint4_linear_1_6)"/>
<path opacity="0.3" d="M277.399 700.86C272.756 698.205 269.071 691.714 269.071 686.404V511.603C269.071 506.293 272.83 504.154 277.399 506.809C282.042 509.464 285.727 515.955 285.727 521.265V696.066C285.727 701.376 281.968 703.515 277.399 700.86Z" fill="url(#paint5_linear_1_6)"/>
<path d="M445.873 627.252C445.873 641.855 437.324 648.788 426.785 642.667C416.246 636.619 407.697 619.802 407.697 605.199C407.697 590.595 416.246 583.662 426.785 589.784C437.324 595.832 445.873 612.648 445.873 627.252Z" fill="#553C9A"/>
<path opacity="0.3" d="M37.6597 333.852L157.64 403.182V625.629L37.6597 556.299V333.852Z" fill="url(#paint6_linear_1_6)"/>
<path opacity="0.15" d="M56.6737 475.315L128.161 516.618V525.395L56.6737 484.092V475.315Z" fill="white"/>
<path opacity="0.15" d="M64.1172 496.925L120.791 529.673V538.45L64.1172 505.702V496.925Z" fill="white"/>
<path d="M83.4261 536.532L0 488.296V513.152L83.4998 561.388L83.4261 536.532Z" fill="#B794F4"/>
<path opacity="0.2" d="M123.665 425.382L105.02 440.134L92.491 424.055L76.13 438.216L69.6446 433.496L93.7438 413.213L105.978 429.291L119.464 419.261L123.665 425.382Z" fill="white"/>
<path d="M137.668 425.014C137.668 433.348 132.804 437.257 126.834 433.791C120.865 430.324 116.001 420.81 116.001 412.476C116.001 404.141 120.865 400.232 126.834 403.699C132.804 407.165 137.668 416.753 137.668 425.014Z" fill="#B794F4"/>
<path d="M81.8048 441.093C81.8048 449.427 76.9407 453.336 70.9712 449.869C65.0017 446.403 60.1376 436.888 60.1376 428.554C60.1376 420.22 65.0017 416.311 70.9712 419.777C76.9407 423.244 81.8048 432.758 81.8048 441.093Z" fill="#B794F4"/>
<path opacity="0.2" d="M450 479.298L335.916 413.36V472.807L450 538.745V479.298Z" fill="url(#paint7_linear_1_6)"/>
<path opacity="0.15" d="M365.1 444.633L399.443 464.473V471.627L365.1 451.713V444.633Z" fill="white"/>
<path opacity="0.15" d="M365.173 458.941L438.282 501.13V508.358L365.173 466.169V458.941Z" fill="white"/>
<path d="M359.13 446.698C359.13 451.566 356.256 453.926 352.645 451.861C349.034 449.796 346.159 444.116 346.159 439.249C346.159 434.381 349.034 432.02 352.645 434.086C356.256 436.151 359.13 441.83 359.13 446.698Z" fill="#553C9A"/>
<path opacity="0.2" d="M157.272 297.49L43.1871 231.553V291L157.272 356.937V297.49Z" fill="url(#paint8_linear_1_6)"/>
<path opacity="0.15" d="M72.3716 262.825L106.715 282.665V289.82L72.3716 269.979V262.825Z" fill="white"/>
<path opacity="0.15" d="M72.4453 277.134L145.554 319.322V326.55L72.4453 284.362V277.134Z" fill="white"/>
<path d="M66.4019 264.89C66.4019 269.758 63.5276 272.118 59.9164 270.053C56.3052 267.988 53.431 262.309 53.431 257.441C53.431 252.573 56.3052 250.213 59.9164 252.278C63.454 254.343 66.4019 260.022 66.4019 264.89Z" fill="#553C9A"/>
<path opacity="0.2" d="M307.984 426.71C307.984 462.85 286.832 479.962 260.817 464.916C234.728 449.869 213.65 408.345 213.65 372.205C213.65 336.064 234.802 318.953 260.817 333.999C286.906 349.045 307.984 390.57 307.984 426.71Z" fill="url(#paint9_linear_1_6)"/>
<path opacity="0.4" d="M242.245 408.787C243.498 408.419 244.161 407.091 244.161 404.805C244.161 402.444 243.498 400.379 242.245 398.683C240.919 396.987 239.003 395.364 236.497 393.963C235.686 393.52 234.802 393.004 233.844 392.561C232.886 392.045 232.075 391.602 231.338 391.307V403.993L235.981 406.649C238.929 408.345 240.992 409.009 242.245 408.787Z" fill="white"/>
<path opacity="0.4" d="M237.234 417.491L231.264 414.024V429.218C232.001 429.734 232.738 430.25 233.475 430.693C234.286 431.209 235.17 431.725 236.128 432.316C239.003 433.938 241.287 434.749 243.056 434.602C244.825 434.528 245.709 432.906 245.709 429.882C245.709 427.226 244.972 424.866 243.498 422.875C242.024 420.883 239.961 419.039 237.234 417.491Z" fill="white"/>
<path opacity="0.4" d="M238.855 348.75C212.766 333.704 191.688 350.816 191.688 386.956C191.688 423.096 212.84 464.621 238.855 479.667C264.944 494.713 286.022 477.601 286.022 441.461C286.022 405.321 264.871 363.797 238.855 348.75ZM250.499 446.845C247.994 447.804 244.53 447.288 240.108 445.297V454.147L231.043 448.911V440.134C230.38 439.765 229.79 439.322 229.127 438.88C226.842 437.331 224.484 435.487 221.978 433.348V376.261C223.894 376.851 226.032 377.736 228.39 378.843C229.274 379.211 230.159 379.654 231.043 380.097V371.32L240.108 376.556L240.034 385.554C240.771 386.144 241.508 386.661 242.172 387.251C244.456 389.095 246.446 391.16 248.067 393.373C249.689 395.585 250.942 398.093 251.826 400.748C252.784 403.403 253.226 406.28 253.226 409.377C253.226 414.098 251.605 416.901 248.362 417.712C251.089 420.662 252.931 423.612 253.89 426.636C254.848 429.587 255.364 432.684 255.364 435.708C255.364 441.904 253.742 445.592 250.499 446.845Z" fill="white"/>
<defs>
<linearGradient id="paint0_linear_1_6" x1="257.773" y1="59.1439" x2="136.701" y2="268.737" gradientUnits="userSpaceOnUse">
<stop stop-color="white"/>
<stop offset="1" stop-color="white" stop-opacity="0"/>
</linearGradient>
<linearGradient id="paint1_linear_1_6" x1="170.301" y1="595" x2="246.835" y2="462.509" gradientUnits="userSpaceOnUse">
<stop stop-color="white"/>
<stop offset="1" stop-color="white" stop-opacity="0"/>
</linearGradient>
<linearGradient id="paint2_linear_1_6" x1="314.442" y1="145.633" x2="209.428" y2="327.431" gradientUnits="userSpaceOnUse">
<stop stop-color="white"/>
<stop offset="1" stop-color="white" stop-opacity="0"/>
</linearGradient>
<linearGradient id="paint3_linear_1_6" x1="399.631" y1="192.189" x2="299.594" y2="365.368" gradientUnits="userSpaceOnUse">
<stop stop-color="white"/>
<stop offset="1" stop-color="white" stop-opacity="0"/>
</linearGradient>
<linearGradient id="paint4_linear_1_6" x1="463.194" y1="550.852" x2="296.628" y2="550.834" gradientUnits="userSpaceOnUse">
<stop stop-color="white"/>
<stop offset="1" stop-color="white" stop-opacity="0"/>
</linearGradient>
<linearGradient id="paint5_linear_1_6" x1="239.562" y1="669.348" x2="315.405" y2="538.236" gradientUnits="userSpaceOnUse">
<stop stop-color="white"/>
<stop offset="1" stop-color="white" stop-opacity="0"/>
</linearGradient>
<linearGradient id="paint6_linear_1_6" x1="170.488" y1="353.45" x2="63.8481" y2="538.059" gradientUnits="userSpaceOnUse">
<stop stop-color="white"/>
<stop offset="1" stop-color="white" stop-opacity="0"/>
</linearGradient>
<linearGradient id="paint7_linear_1_6" x1="405.824" y1="453.744" x2="380.061" y2="498.344" gradientUnits="userSpaceOnUse">
<stop stop-color="white"/>
<stop offset="1" stop-color="white" stop-opacity="0"/>
</linearGradient>
<linearGradient id="paint8_linear_1_6" x1="113.096" y1="271.936" x2="87.3323" y2="316.537" gradientUnits="userSpaceOnUse">
<stop stop-color="white"/>
<stop offset="1" stop-color="white" stop-opacity="0"/>
</linearGradient>
<linearGradient id="paint9_linear_1_6" x1="270.293" y1="345.456" x2="248.928" y2="467.022" gradientUnits="userSpaceOnUse">
<stop stop-color="white"/>
<stop offset="1" stop-color="white" stop-opacity="0"/>
</linearGradient>
</defs>
</svg>
